# Created by Kenney (www.kenney.nl)

mtllib JinSoin.mtl

g N

v -4.5 5.510582E-17 -19
v -4.5 5.510582E-17 -21
v -5.5 5.510582E-17 -19
v -5.5 5.510582E-17 -21
v -4.5 2.4 -21
v -4.5 2.4 -19
v -2.5 -8.025259E-17 -19
v -2.5 -8.025259E-17 -21
v -3.5 -8.025259E-17 -19
v -3.5 -8.025259E-17 -21
v -5.5 3 -21
v -5.5 3 -19
v -2.75 2.85 -21
v -2.75 2.85 -19
v -3.5 3 -21
v -3.5 3 -19
v -3.5 2.4 -19
v -3.5 2.4 -21
v -2.5 2.4 -21
v -2.5 2.4 -19

vn 0 -0.6 0
vn 1 0 0
vn -1 0 0
vn 0.7071068 0.4242641 0
vn 0.3162278 0.56921 0
vn 0 0.6 0
vn 0.9486833 0.1897367 0
vn 0 0 1
vn 0 0 -1

vt 0.45 1.9
vt 0.45 2.1
vt 0.55 1.9
vt 0.55 2.1
vt 2.1 0.24
vt 2.1 5.510582E-18
vt 1.9 0.24
vt 1.9 5.510582E-18
vt 0.25 1.9
vt 0.25 2.1
vt 0.35 1.9
vt 0.35 2.1
vt -2.1 5.510582E-18
vt -2.1 0.3
vt -1.9 5.510582E-18
vt -1.9 0.3
vt 0.275 -2.1
vt 0.275 -1.9
vt 0.35 -2.1
vt 0.35 -1.9
vt 0.55 -2.1
vt 0.55 -1.9
vt 2.1 0.285
vt 1.9 0.285
vt 2.1 -8.025258E-18
vt 1.9 -8.025258E-18
vt -2.1 -8.025258E-18
vt -2.1 0.24
vt -1.9 -8.025258E-18
vt -1.9 0.24
vt -0.25 -8.025258E-18
vt -0.35 -8.025258E-18
vt -0.25 0.24
vt -0.35 0.24
vt -0.45 0.24
vt -0.275 0.285
vt -0.45 5.510582E-18
vt -0.55 5.510582E-18
vt -0.55 0.3
vt -0.35 0.3
vt 0.55 5.510582E-18
vt 0.45 5.510582E-18
vt 0.55 0.3
vt 0.45 0.24
vt 0.275 0.285
vt 0.35 0.3
vt 0.35 -8.025258E-18
vt 0.25 -8.025258E-18
vt 0.35 0.24
vt 0.25 0.24

usemtl metalPurple(Clone)

f 3/3/1 2/2/1 1/1/1
f 2/2/1 3/3/1 4/4/1
f 6/7/2 2/6/2 5/5/2
f 2/6/2 6/7/2 1/8/2
f 9/11/1 8/10/1 7/9/1
f 8/10/1 9/11/1 10/12/1
f 3/15/3 11/14/3 4/13/3
f 11/14/3 3/15/3 12/16/3
f 15/19/5 14/18/4 13/17/4
f 14/18/4 15/19/5 16/20/5
f 6/1/1 18/12/1 17/11/1
f 18/12/1 6/1/1 5/2/1
f 11/21/6 16/20/6 15/19/6
f 16/20/6 11/21/6 12/22/6
f 14/24/4 19/5/7 13/23/4
f 19/5/7 14/24/4 20/7/7
f 20/7/2 8/25/2 19/5/2
f 8/25/2 20/7/2 7/26/2
f 9/29/3 18/28/3 10/27/3
f 18/28/3 9/29/3 17/30/3

usemtl _defaultMat(Clone)

f 20/33/8 9/32/8 7/31/8
f 9/32/8 20/33/8 17/34/8
f 17/34/8 20/33/8 6/35/8
f 6/35/8 20/33/8 14/36/8
f 6/35/8 3/38/8 1/37/8
f 3/38/8 6/35/8 12/39/8
f 12/39/8 6/35/8 14/36/8
f 12/39/8 14/36/8 16/40/8
f 11/43/9 2/42/9 4/41/9
f 2/42/9 11/43/9 5/44/9
f 19/33/9 18/34/9 5/35/9
f 5/44/9 11/43/9 13/45/9
f 13/45/9 11/43/9 15/46/9
f 18/49/9 8/48/9 10/47/9
f 8/48/9 18/49/9 19/50/9
f 19/50/9 5/44/9 13/45/9

g S

v 1.5 2 -21
v 1.5 1 -21
v 1.5 2 -19
v 1.5 1 -19
v 1.5 5 -21
v 1.5 4 -21
v 1.5 5 -19
v 1.5 4 -19
v -0.5 4 -21
v -0.5 3 -21
v -0.5 4 -19
v -0.5 3 -19
v -1.5 3 -21
v -1.5 4 -21
v -1.5 3 -19
v -1.5 4 -19
v -1.5 -2.465529E-16 -21
v -1.5 1 -21
v -1.5 -2.465529E-16 -19
v -1.5 1 -19
v 0.5 4.712888E-14 -19
v 0.5 4.712888E-14 -21
v 1.25 2.75 -21
v 1.25 2.75 -19
v 0.5 3 -21
v 0.5 3 -19
v 0.5 1 -21
v 0.5 1 -19
v 0.5 2 -21
v 0.5 2 -19
v -0.5 2 -19
v -0.5 2 -21
v -1.25 2.25 -21
v -1.25 2.25 -19
v -0.5 5 -21
v -0.5 5 -19
v -1.25 4.75 -21
v -1.25 4.75 -19
v 1.25 0.25 -21
v 1.25 0.25 -19

vn 0 -1 0
vn 0.7071068 0.7071068 0
vn 0.9486833 0.3162278 0
vn 0.3162278 0.9486833 0
vn 0 1 0
vn -0.7071068 -0.7071068 0
vn -0.9486833 -0.3162278 0
vn -0.3162278 -0.9486833 0
vn -0.9486833 0.3162278 0
vn -0.7071068 0.7071068 0
vn -0.3162278 0.9486833 0
vn 0.9486833 -0.3162278 0
vn 0.7071068 -0.7071068 0
vn 0.3162278 -0.9486833 0

vt 2.1 0.2
vt 2.1 0.1
vt 1.9 0.2
vt 1.9 0.1
vt 2.1 0.5
vt 2.1 0.4
vt 1.9 0.5
vt 1.9 0.4
vt 2.1 0.3
vt 1.9 0.3
vt -2.1 0.4
vt -1.9 0.4
vt -0.15 1.9
vt -0.15 2.1
vt 0.05 1.9
vt 0.05 2.1
vt -2.1 -2.465529E-17
vt -2.1 0.1
vt -1.9 -2.465529E-17
vt -1.9 0.1
vt -0.05 1.9
vt -0.05 2.1
vt 0.15 1.9
vt 0.15 2.1
vt 2.1 0.275
vt 1.9 0.275
vt -0.125 -2.1
vt -0.125 -1.9
vt -0.05 -2.1
vt -0.05 -1.9
vt 0.15 -2.1
vt 0.15 -1.9
vt -2.1 0.2
vt -1.9 0.2
vt -2.1 0.225
vt -1.9 0.225
vt 0.05 -2.1
vt 0.05 -1.9
vt -0.15 -2.1
vt -0.15 -1.9
vt 0.125 1.9
vt 0.125 2.1
vt -2.1 0.475
vt -1.9 0.475
vt 0.125 -2.1
vt 0.125 -1.9
vt 2.1 0.025
vt 1.9 0.025
vt -0.125 1.9
vt -0.125 2.1
vt 0.15 -2.465529E-17
vt -0.05 4.712888E-15
vt 0.15 0.1
vt -0.125 0.025
vt -0.05 0.1
vt -0.15 0.1
vt -0.05 0.2
vt -0.15 0.2
vt 0.05 0.2
vt 0.125 0.225
vt -0.125 0.275
vt 0.15 0.3
vt 0.05 0.3
vt 0.05 0.4
vt 0.15 0.4
vt 0.125 0.475
vt -0.15 0.4
vt -0.15 0.5
vt 0.05 0.5
vt -0.05 0.3
vt -0.05 0.4
vt 0.15 0.5
vt -0.125 0.475
vt -0.05 0.5
vt 0.125 0.025
vt 0.05 0.1
vt 0.15 0.2
vt -0.125 0.225
vt 0.125 0.275
vt -0.15 0.3
vt -0.15 -2.465529E-17
vt 0.05 4.712888E-15

usemtl metalPurple(Clone)

f 23/53/2 22/52/2 21/51/2
f 22/52/2 23/53/2 24/54/2
f 27/57/2 26/56/2 25/55/2
f 26/56/2 27/57/2 28/58/2
f 31/58/2 30/59/2 29/56/2
f 30/59/2 31/58/2 32/60/2
f 35/16/3 34/61/3 33/14/3
f 34/61/3 35/16/3 36/62/3
f 31/65/10 26/64/10 28/63/10
f 26/64/10 31/65/10 29/66/10
f 39/69/3 38/68/3 37/67/3
f 38/68/3 39/69/3 40/70/3
f 39/73/10 42/72/10 41/71/10
f 42/72/10 39/73/10 37/74/10
f 44/76/11 21/51/12 43/75/11
f 21/51/12 44/76/11 23/53/12
f 45/79/13 44/78/11 43/77/11
f 44/78/11 45/79/13 46/80/13
f 38/81/14 48/80/14 47/79/14
f 48/80/14 38/81/14 40/82/14
f 48/70/3 49/83/3 47/68/3
f 49/83/3 48/70/3 50/84/3
f 51/65/10 49/72/10 50/71/10
f 49/72/10 51/65/10 52/66/10
f 54/86/15 33/14/16 53/85/15
f 33/14/16 54/86/15 35/16/16
f 30/87/14 46/80/14 45/79/14
f 46/80/14 30/87/14 32/88/14
f 55/87/14 27/90/14 25/89/14
f 27/90/14 55/87/14 56/88/14
f 54/91/15 52/66/17 51/65/17
f 52/66/17 54/91/15 53/92/15
f 36/62/18 57/93/19 34/61/18
f 57/93/19 36/62/18 58/94/19
f 57/95/19 56/88/20 55/87/20
f 56/88/20 57/95/19 58/96/19
f 24/54/21 59/97/22 22/52/21
f 59/97/22 24/54/21 60/98/22
f 41/71/23 59/100/22 60/99/22
f 59/100/22 41/71/23 42/72/23

usemtl _defaultMat(Clone)

f 38/103/9 42/102/9 37/101/9
f 42/102/9 38/103/9 59/104/9
f 59/104/9 38/103/9 47/105/9
f 59/104/9 47/105/9 22/106/9
f 22/106/9 47/105/9 49/107/9
f 22/106/9 49/107/9 21/108/9
f 53/110/9 49/107/9 52/109/9
f 49/107/9 53/110/9 21/108/9
f 21/108/9 53/110/9 43/111/9
f 43/111/9 53/110/9 33/112/9
f 43/111/9 33/112/9 30/113/9
f 30/113/9 33/112/9 29/114/9
f 29/114/9 33/112/9 34/115/9
f 29/114/9 34/115/9 57/116/9
f 29/114/9 57/116/9 26/117/9
f 26/117/9 57/116/9 25/118/9
f 25/118/9 57/116/9 55/119/9
f 45/120/9 43/111/9 30/113/9
f 27/122/8 31/121/8 28/115/8
f 31/121/8 27/122/8 36/117/8
f 36/117/8 27/122/8 58/123/8
f 58/123/8 27/122/8 56/124/8
f 24/103/8 48/126/8 60/125/8
f 48/126/8 24/103/8 50/109/8
f 50/109/8 24/103/8 23/127/8
f 50/109/8 23/127/8 51/107/8
f 51/107/8 23/127/8 54/128/8
f 54/128/8 23/127/8 44/129/8
f 54/128/8 44/129/8 35/130/8
f 35/130/8 44/129/8 32/120/8
f 32/120/8 44/129/8 46/113/8
f 35/130/8 32/120/8 31/121/8
f 35/130/8 31/121/8 36/117/8
f 41/132/8 40/106/8 39/131/8
f 40/106/8 41/132/8 60/125/8
f 40/106/8 60/125/8 48/126/8

g 0

v 5.5 0.726 -19
v 4.5 0.726 -19
v 5.5 2.904 -19
v 4.5 2.904 -19
v 5.25 3.4485 -19
v 2.75 3.4485 -19
v 3.5 3.63 -19
v 4.5 3.63 -19
v 2.5 0.726 -19
v 5.25 0.1815 -19
v 2.75 0.1815 -19
v 3.5 1.883512E-15 -19
v 4.5 -1.883512E-15 -19
v 3.5 0.726 -19
v 2.5 2.904 -19
v 3.5 2.904 -19
v 2.5 0.726 -21
v 3.5 0.726 -21
v 2.5 2.904 -21
v 3.5 2.904 -21
v 2.75 3.4485 -21
v 4.5 2.904 -21
v 5.5 0.726 -21
v 5.25 0.1815 -21
v 2.75 0.1815 -21
v 3.5 1.883512E-15 -21
v 4.5 -1.883512E-15 -21
v 4.5 0.726 -21
v 5.5 2.904 -21
v 5.25 3.4485 -21
v 3.5 3.63 -21
v 4.5 3.63 -21

vn 0.7071068 -0.5133595 0
vn 0.3162278 -0.6887441 0
vn -0.7071068 -0.5133595 0
vn -0.9486833 -0.2295814 0
vn 0 -0.726 0
vn 0.7071068 0.5133595 0
vn 0.3162278 0.6887441 0
vn -0.3162278 0.6887441 0
vn -0.7071068 0.5133595 0
vn -0.3162278 -0.6887441 0
vn -0.9486833 0.2295814 0
vn 0.9486833 -0.2295814 0
vn 0 0.726 0
vn 0.9486833 0.2295814 0

vt 0.55 0.0726
vt 0.45 0.0726
vt 0.55 0.2904
vt 0.45 0.2904
vt 0.525 0.34485
vt 0.275 0.34485
vt 0.35 0.363
vt 0.45 0.363
vt 0.25 0.0726
vt 0.525 0.01815
vt 0.275 0.01815
vt 0.35 1.883512E-16
vt 0.45 -1.883512E-16
vt 0.35 0.0726
vt 0.25 0.2904
vt 0.35 0.2904
vt -0.25 0.0726
vt -0.35 0.0726
vt -0.25 0.2904
vt -0.35 0.2904
vt -0.275 0.34485
vt -0.45 0.2904
vt -0.55 0.0726
vt -0.525 0.01815
vt -0.275 0.01815
vt -0.35 1.883512E-16
vt -0.45 -1.883512E-16
vt -0.55 0.2904
vt -0.45 0.0726
vt -0.525 0.34485
vt -0.35 0.363
vt -0.45 0.363
vt -0.525 1.9
vt -0.525 2.1
vt -0.45 1.9
vt -0.45 2.1
vt -2.1 0.01815
vt -2.1 0.0726
vt -1.9 0.01815
vt -1.9 0.0726
vt -0.35 1.9
vt -0.35 2.1
vt -2.1 0.2904
vt -1.9 0.2904
vt -0.525 -2.1
vt -0.525 -1.9
vt -0.45 -2.1
vt -0.45 -1.9
vt 2.1 0.2904
vt 2.1 0.0726
vt 1.9 0.2904
vt 1.9 0.0726
vt -0.35 -2.1
vt -0.35 -1.9
vt -0.275 -2.1
vt -0.275 -1.9
vt -0.275 1.9
vt -0.275 2.1
vt -2.1 0.34485
vt -1.9 0.34485
vt 2.1 0.01815
vt 1.9 0.01815
vt 2.1 0.34485
vt 1.9 0.34485

usemtl _defaultMat(Clone)

f 63/135/8 62/134/8 61/133/8
f 62/134/8 63/135/8 64/136/8
f 64/136/8 63/135/8 65/137/8
f 64/136/8 65/137/8 66/138/8
f 66/138/8 65/137/8 67/139/8
f 67/139/8 65/137/8 68/140/8
f 69/141/8 61/133/8 62/134/8
f 69/141/8 70/142/8 61/133/8
f 71/143/8 70/142/8 69/141/8
f 72/144/8 70/142/8 71/143/8
f 70/142/8 72/144/8 73/145/8
f 69/141/8 62/134/8 74/146/8
f 69/141/8 74/146/8 75/147/8
f 75/147/8 74/146/8 76/148/8
f 75/147/8 76/148/8 66/138/8
f 66/138/8 76/148/8 64/136/8
f 79/151/9 78/150/9 77/149/9
f 78/150/9 79/151/9 80/152/9
f 80/152/9 79/151/9 81/153/9
f 80/152/9 81/153/9 82/154/9
f 83/133/9 77/141/9 78/146/9
f 84/156/9 77/149/9 83/155/9
f 84/156/9 85/157/9 77/149/9
f 84/156/9 86/158/9 85/157/9
f 86/158/9 84/156/9 87/159/9
f 83/133/9 78/146/9 88/134/9
f 83/155/9 88/161/9 89/160/9
f 89/160/9 88/161/9 82/154/9
f 89/160/9 82/154/9 90/162/9
f 90/162/9 82/154/9 81/153/9
f 90/162/9 81/153/9 91/163/9
f 90/162/9 91/163/9 92/164/9

usemtl metalPurple(Clone)

f 73/167/25 84/166/24 70/165/24
f 84/166/24 73/167/25 87/168/25
f 71/171/26 77/170/27 85/169/26
f 77/170/27 71/171/26 69/172/27
f 72/173/28 87/168/28 73/167/28
f 87/168/28 72/173/28 86/174/28
f 62/172/3 82/175/3 88/170/3
f 82/175/3 62/172/3 64/176/3
f 92/179/30 65/178/29 90/177/29
f 65/178/29 92/179/30 68/180/30
f 63/183/2 83/182/2 89/181/2
f 83/182/2 63/183/2 61/184/2
f 81/187/32 67/186/31 91/185/31
f 67/186/31 81/187/32 66/188/32
f 71/189/26 86/174/33 72/173/33
f 86/174/33 71/189/26 85/190/26
f 76/173/28 82/168/28 64/167/28
f 82/168/28 76/173/28 80/174/28
f 75/176/34 81/191/32 79/175/34
f 81/191/32 75/176/34 66/192/32
f 69/172/3 79/175/3 77/170/3
f 79/175/3 69/172/3 75/176/3
f 61/184/35 84/193/24 83/182/35
f 84/193/24 61/184/35 70/194/24
f 91/185/36 68/180/36 92/179/36
f 68/180/36 91/185/36 67/186/36
f 76/183/2 78/182/2 80/181/2
f 78/182/2 76/183/2 74/184/2
f 65/196/29 89/181/37 90/195/29
f 89/181/37 65/196/29 63/183/37
f 78/185/36 62/180/36 88/179/36
f 62/180/36 78/185/36 74/186/36

g N

v 9.5 5.510582E-17 -19
v 9.5 5.510582E-17 -21
v 8.5 5.510582E-17 -19
v 8.5 5.510582E-17 -21
v 9.5 2.4 -21
v 9.5 2.4 -19
v 11.5 -8.025259E-17 -19
v 11.5 -8.025259E-17 -21
v 10.5 -8.025259E-17 -19
v 10.5 -8.025259E-17 -21
v 8.5 3 -21
v 8.5 3 -19
v 11.25 2.85 -21
v 11.25 2.85 -19
v 10.5 3 -21
v 10.5 3 -19
v 10.5 2.4 -19
v 10.5 2.4 -21
v 11.5 2.4 -21
v 11.5 2.4 -19


vt -0.95 1.9
vt -0.95 2.1
vt -0.85 1.9
vt -0.85 2.1
vt -1.15 1.9
vt -1.15 2.1
vt -1.05 1.9
vt -1.05 2.1
vt -1.125 -2.1
vt -1.125 -1.9
vt -1.05 -2.1
vt -1.05 -1.9
vt -0.85 -2.1
vt -0.85 -1.9
vt 1.15 -8.025258E-18
vt 1.05 -8.025258E-18
vt 1.15 0.24
vt 1.05 0.24
vt 0.95 0.24
vt 1.125 0.285
vt 0.95 5.510582E-18
vt 0.85 5.510582E-18
vt 0.85 0.3
vt 1.05 0.3
vt -0.85 5.510582E-18
vt -0.95 5.510582E-18
vt -0.85 0.3
vt -0.95 0.24
vt -1.125 0.285
vt -1.05 0.3
vt -1.05 -8.025258E-18
vt -1.15 -8.025258E-18
vt -1.05 0.24
vt -1.15 0.24

usemtl metalPurple(Clone)

f 95/199/1 94/198/1 93/197/1
f 94/198/1 95/199/1 96/200/1
f 98/7/2 94/6/2 97/5/2
f 94/6/2 98/7/2 93/8/2
f 101/203/1 100/202/1 99/201/1
f 100/202/1 101/203/1 102/204/1
f 95/15/3 103/14/3 96/13/3
f 103/14/3 95/15/3 104/16/3
f 107/207/5 106/206/4 105/205/4
f 106/206/4 107/207/5 108/208/5
f 98/197/1 110/204/1 109/203/1
f 110/204/1 98/197/1 97/198/1
f 103/209/6 108/208/6 107/207/6
f 108/208/6 103/209/6 104/210/6
f 106/24/4 111/5/7 105/23/4
f 111/5/7 106/24/4 112/7/7
f 112/7/2 100/25/2 111/5/2
f 100/25/2 112/7/2 99/26/2
f 101/29/3 110/28/3 102/27/3
f 110/28/3 101/29/3 109/30/3

usemtl _defaultMat(Clone)

f 112/213/8 101/212/8 99/211/8
f 101/212/8 112/213/8 109/214/8
f 109/214/8 112/213/8 98/215/8
f 98/215/8 112/213/8 106/216/8
f 98/215/8 95/218/8 93/217/8
f 95/218/8 98/215/8 104/219/8
f 104/219/8 98/215/8 106/216/8
f 104/219/8 106/216/8 108/220/8
f 103/223/9 94/222/9 96/221/9
f 94/222/9 103/223/9 97/224/9
f 111/213/9 110/214/9 97/215/9
f 97/224/9 103/223/9 105/225/9
f 105/225/9 103/223/9 107/226/9
f 110/229/9 100/228/9 102/227/9
f 100/228/9 110/229/9 111/230/9
f 111/230/9 97/224/9 105/225/9

g I

v -6.5 0 -19
v -6.5 0 -21
v -7.5 0 -19
v -7.5 0 -21
v -6.5 2.8 -21
v -6.5 2.8 -19
v -7.5 2.8 -21
v -7.5 2.8 -19

vn 0 -0.56 0
vn 0 0.56 0

vt 0.65 1.9
vt 0.65 2.1
vt 0.75 1.9
vt 0.75 2.1
vt 2.1 0.28
vt 2.1 0
vt 1.9 0.28
vt 1.9 0
vt -2.1 0
vt -2.1 0.28
vt -1.9 0
vt -1.9 0.28
vt 0.65 -2.1
vt 0.65 -1.9
vt 0.75 -2.1
vt 0.75 -1.9
vt -0.65 0
vt -0.75 0
vt -0.65 0.28
vt -0.75 0.28
vt 0.75 0
vt 0.65 0
vt 0.75 0.28
vt 0.65 0.28

usemtl metalPurple(Clone)

f 115/233/38 114/232/38 113/231/38
f 114/232/38 115/233/38 116/234/38
f 118/237/2 114/236/2 117/235/2
f 114/236/2 118/237/2 113/238/2
f 115/241/3 119/240/3 116/239/3
f 119/240/3 115/241/3 120/242/3
f 119/245/39 118/244/39 117/243/39
f 118/244/39 119/245/39 120/246/39

usemtl _defaultMat(Clone)

f 118/249/8 115/248/8 113/247/8
f 115/248/8 118/249/8 120/250/8
f 119/253/9 114/252/9 116/251/9
f 114/252/9 119/253/9 117/254/9

g I

v -6.5 3.084 -19
v -6.5 3.084 -21
v -7.5 3.084 -19
v -7.5 3.084 -21
v -6.5 3.84 -21
v -6.5 3.84 -19
v -7.5 3.84 -21
v -7.5 3.84 -19

vn 0 -0.1512 0
vn 0 0.1512 0

vt 2.1 0.384
vt 2.1 0.3084
vt 1.9 0.384
vt 1.9 0.3084
vt -2.1 0.3084
vt -2.1 0.384
vt -1.9 0.3084
vt -1.9 0.384
vt -0.65 0.3084
vt -0.75 0.3084
vt -0.65 0.384
vt -0.75 0.384
vt 0.75 0.3084
vt 0.65 0.3084
vt 0.75 0.384
vt 0.65 0.384

usemtl metalPurple(Clone)

f 123/233/40 122/232/40 121/231/40
f 122/232/40 123/233/40 124/234/40
f 126/257/2 122/256/2 125/255/2
f 122/256/2 126/257/2 121/258/2
f 123/261/3 127/260/3 124/259/3
f 127/260/3 123/261/3 128/262/3
f 127/245/41 126/244/41 125/243/41
f 126/244/41 127/245/41 128/246/41

usemtl _defaultMat(Clone)

f 126/265/8 123/264/8 121/263/8
f 123/264/8 126/265/8 128/266/8
f 127/269/9 122/268/9 124/267/9
f 122/268/9 127/269/9 125/270/9

g I

v 7.5 0 -19
v 7.5 0 -21
v 6.5 0 -19
v 6.5 0 -21
v 7.5 2.8 -21
v 7.5 2.8 -19
v 6.5 2.8 -21
v 6.5 2.8 -19


vt -0.75 1.9
vt -0.75 2.1
vt -0.65 1.9
vt -0.65 2.1
vt -0.75 -2.1
vt -0.75 -1.9
vt -0.65 -2.1
vt -0.65 -1.9

usemtl metalPurple(Clone)

f 131/273/38 130/272/38 129/271/38
f 130/272/38 131/273/38 132/274/38
f 134/237/2 130/236/2 133/235/2
f 130/236/2 134/237/2 129/238/2
f 131/241/3 135/240/3 132/239/3
f 135/240/3 131/241/3 136/242/3
f 135/277/39 134/276/39 133/275/39
f 134/276/39 135/277/39 136/278/39

usemtl _defaultMat(Clone)

f 134/253/8 131/252/8 129/251/8
f 131/252/8 134/253/8 136/254/8
f 135/249/9 130/248/9 132/247/9
f 130/248/9 135/249/9 133/250/9

g I

v 7.5 3.084 -19
v 7.5 3.084 -21
v 6.5 3.084 -19
v 6.5 3.084 -21
v 7.5 3.84 -21
v 7.5 3.84 -19
v 6.5 3.84 -21
v 6.5 3.84 -19



usemtl metalPurple(Clone)

f 139/273/40 138/272/40 137/271/40
f 138/272/40 139/273/40 140/274/40
f 142/257/2 138/256/2 141/255/2
f 138/256/2 142/257/2 137/258/2
f 139/261/3 143/260/3 140/259/3
f 143/260/3 139/261/3 144/262/3
f 143/277/41 142/276/41 141/275/41
f 142/276/41 143/277/41 144/278/41

usemtl _defaultMat(Clone)

f 142/269/8 139/268/8 137/267/8
f 139/268/8 142/269/8 144/270/8
f 143/265/9 138/264/9 140/263/9
f 138/264/9 143/265/9 141/266/9

g J

v -8.5 1 -21
v -8.75 0.25 -21
v -8.5 1 -19
v -8.75 0.25 -19
v -9.5 -3.924467E-16 -19
v -9.5 -3.924467E-16 -21
v -11.5 -3.924467E-16 -21
v -11.5 1 -21
v -11.5 -3.924467E-16 -19
v -11.5 1 -19
v -10.5 4 -21
v -10.5 5 -21
v -10.5 4 -19
v -10.5 5 -19
v -9.5 1 -21
v -9.5 1 -19
v -8.5 5 -21
v -8.5 5 -19
v -9.5 4 -21
v -9.5 4 -19


vt 0.875 1.9
vt 0.875 2.1
vt 0.95 1.9
vt 0.95 2.1
vt -2.1 -3.924467E-17
vt -1.9 -3.924467E-17
vt -2.1 0.5
vt -1.9 0.5
vt 0.95 -2.1
vt 0.95 -1.9
vt 1.15 -2.1
vt 1.15 -1.9
vt 1.15 1.9
vt 1.15 2.1
vt 0.85 -2.1
vt 0.85 -1.9
vt 1.05 -2.1
vt 1.05 -1.9
vt 1.05 1.9
vt 1.05 2.1
vt 1.05 0.4
vt 0.95 0.4
vt 1.05 0.5
vt 0.95 -3.924467E-17
vt 0.875 0.025
vt 1.15 -3.924467E-17
vt 1.15 0.1
vt 0.95 0.1
vt 0.85 0.1
vt 0.85 0.5
vt -0.875 0.025
vt -0.95 0.1
vt -0.85 0.1
vt -0.95 0.4
vt -0.85 0.5
vt -1.05 0.4
vt -1.05 0.5
vt -0.95 -3.924467E-17
vt -1.15 -3.924467E-17
vt -1.15 0.1

usemtl metalPurple(Clone)

f 147/54/21 146/97/22 145/52/21
f 146/97/22 147/54/21 148/98/22
f 149/281/23 146/280/22 148/279/22
f 146/280/22 149/281/23 150/282/23
f 153/284/3 152/68/3 151/283/3
f 152/68/3 153/284/3 154/70/3
f 157/62/3 156/285/3 155/61/3
f 156/285/3 157/62/3 158/286/3
f 152/289/14 160/288/14 159/287/14
f 160/288/14 152/289/14 154/290/14
f 153/291/10 150/282/10 149/281/10
f 150/282/10 153/291/10 151/292/10
f 162/57/2 145/52/2 161/55/2
f 145/52/2 162/57/2 147/54/2
f 156/295/14 162/294/14 161/293/14
f 162/294/14 156/295/14 158/296/14
f 160/70/3 163/61/3 159/68/3
f 163/61/3 160/70/3 164/62/3
f 157/297/10 163/282/10 164/281/10
f 163/282/10 157/297/10 155/298/10

usemtl _defaultMat(Clone)

f 156/301/9 163/300/9 155/299/9
f 151/304/9 146/303/9 150/302/9
f 146/303/9 151/304/9 152/305/9
f 146/303/9 152/305/9 159/306/9
f 146/303/9 159/306/9 145/307/9
f 145/307/9 159/306/9 163/300/9
f 145/307/9 163/300/9 161/308/9
f 161/308/9 163/300/9 156/301/9
f 147/311/8 160/310/8 148/309/8
f 160/310/8 147/311/8 164/312/8
f 164/312/8 147/311/8 162/313/8
f 164/312/8 162/313/8 157/314/8
f 157/314/8 162/313/8 158/315/8
f 148/309/8 153/317/8 149/316/8
f 153/317/8 148/309/8 154/318/8
f 154/318/8 148/309/8 160/310/8

