# Created by Kenney (www.kenney.nl)

mtllib stone-platform.mtl

g mergedBlocks

v 1.5 0 -0.5
v 1.5 0 -1.5
v 0.5 0 -0.5
v 0.5 0 -1.5
v 1.5 0.9 -1.5
v 1.5 0.9 -0.5
v 0.5 0.9 -1.5
v 0.5 0.9 -0.5
v 1.5 0 0.5
v 0.5 0 0.5
v 1.5 0.9 0.5
v 0.5 0.9 0.5
v 1.5 0 1.5
v 0.5 0 1.5
v 1.5 0.9 1.5
v 0.5 0.9 1.5
v -0.5 0 -0.5
v -0.5 0 -1.5
v -0.5 0.9 -1.5
v -0.5 0.9 -0.5
v -0.5 0 0.5
v -0.5 0.9 0.5
v -0.5 0 1.5
v -0.5 0.9 1.5
v -1.5 0 -0.5
v -1.5 0 -1.5
v -1.5 0.9 -1.5
v -1.5 0.9 -0.5
v -1.5 0 0.5
v -1.5 0.9 0.5
v -1.5 0 1.5
v -1.5 0.9 1.5
v 1.5 1 -1.5
v 1.5 1 -0.5
v 0.5 1 -1.5
v 0.5 1 -0.5
v 1.5 1 0.5
v 0.5 1 0.5
v 1.5 1 1.5
v 0.5 1 1.5
v -0.5 1 -1.5
v -0.5 1 -0.5
v -0.5 1 0.5
v -0.5 1 1.5
v -1.5 1 -1.5
v -1.5 1 -0.5
v -1.5 1 0.5
v -1.5 1 1.5

vn 0 -1 0
vn 1 0 0
vn -1 0 0
vn 0 0 -1
vn 0 0 1
vn 0 1 0

vt -1.5 0.5
vt -1.5 1.5
vt -0.5 0.5
vt -0.5 1.5
vt 1.5 0.9
vt 1.5 0
vt 0.5 0.9
vt 0.5 0
vt -1.5 0
vt -1.5 0.9
vt -0.5 0
vt -0.5 0.9
vt -1.5 -0.5
vt -0.5 -0.5
vt -1.5 -1.5
vt -0.5 -1.5
vt 0.5 0.5
vt 0.5 1.5
vt 0.5 -0.5
vt 0.5 -1.5
vt 1.5 0.5
vt 1.5 1.5
vt 1.5 -0.5
vt 1.5 -1.5
vt -1.5 1
vt -0.5 1
vt 1.5 1
vt 0.5 1

usemtl stoneDark(Clone)

f 3/3/1 2/2/1 1/1/1
f 2/2/1 3/3/1 4/4/1
f 6/7/2 2/6/2 5/5/2
f 2/6/2 6/7/2 1/8/2
f 3/11/3 7/10/3 4/9/3
f 7/10/3 3/11/3 8/12/3
f 7/12/4 2/9/4 4/11/4
f 2/9/4 7/12/4 5/10/4
f 6/5/5 3/8/5 1/6/5
f 3/8/5 6/5/5 8/7/5
f 10/14/1 1/1/1 9/13/1
f 1/1/1 10/14/1 3/3/1
f 11/12/2 1/8/2 6/7/2
f 1/8/2 11/12/2 9/11/2
f 10/8/3 8/12/3 3/11/3
f 8/12/3 10/8/3 12/7/3
f 8/12/4 1/9/4 3/11/4
f 1/9/4 8/12/4 6/10/4
f 11/5/5 10/8/5 9/6/5
f 10/8/5 11/5/5 12/7/5
f 14/16/1 9/13/1 13/15/1
f 9/13/1 14/16/1 10/14/1
f 15/10/2 9/11/2 11/12/2
f 9/11/2 15/10/2 13/9/2
f 14/6/3 12/7/3 10/8/3
f 12/7/3 14/6/3 16/5/3
f 12/12/4 9/9/4 10/11/4
f 9/9/4 12/12/4 11/10/4
f 15/5/5 14/8/5 13/6/5
f 14/8/5 15/5/5 16/7/5
f 17/17/1 4/4/1 3/3/1
f 4/4/1 17/17/1 18/18/1
f 8/7/2 4/6/2 7/5/2
f 4/6/2 8/7/2 3/8/2
f 17/11/3 19/10/3 18/9/3
f 19/10/3 17/11/3 20/12/3
f 19/7/4 4/11/4 18/8/4
f 4/11/4 19/7/4 7/12/4
f 8/7/5 17/11/5 3/8/5
f 17/11/5 8/7/5 20/12/5
f 21/19/1 3/3/1 10/14/1
f 3/3/1 21/19/1 17/17/1
f 12/12/2 3/8/2 8/7/2
f 3/8/2 12/12/2 10/11/2
f 21/8/3 20/12/3 17/11/3
f 20/12/3 21/8/3 22/7/3
f 20/7/4 3/11/4 17/8/4
f 3/11/4 20/7/4 8/12/4
f 12/7/5 21/11/5 10/8/5
f 21/11/5 12/7/5 22/12/5
f 23/20/1 10/14/1 14/16/1
f 10/14/1 23/20/1 21/19/1
f 16/10/2 10/11/2 12/12/2
f 10/11/2 16/10/2 14/9/2
f 23/6/3 22/7/3 21/8/3
f 22/7/3 23/6/3 24/5/3
f 22/7/4 10/11/4 21/8/4
f 10/11/4 22/7/4 12/12/4
f 16/7/5 23/11/5 14/8/5
f 23/11/5 16/7/5 24/12/5
f 25/21/1 18/18/1 17/17/1
f 18/18/1 25/21/1 26/22/1
f 20/7/2 18/6/2 19/5/2
f 18/6/2 20/7/2 17/8/2
f 25/11/3 27/10/3 26/9/3
f 27/10/3 25/11/3 28/12/3
f 27/5/4 18/8/4 26/6/4
f 18/8/4 27/5/4 19/7/4
f 20/12/5 25/9/5 17/11/5
f 25/9/5 20/12/5 28/10/5
f 29/23/1 17/17/1 21/19/1
f 17/17/1 29/23/1 25/21/1
f 22/12/2 17/8/2 20/7/2
f 17/8/2 22/12/2 21/11/2
f 29/8/3 28/12/3 25/11/3
f 28/12/3 29/8/3 30/7/3
f 28/5/4 17/8/4 25/6/4
f 17/8/4 28/5/4 20/7/4
f 22/12/5 29/9/5 21/11/5
f 29/9/5 22/12/5 30/10/5
f 31/24/1 21/19/1 23/20/1
f 21/19/1 31/24/1 29/23/1
f 24/10/2 21/11/2 22/12/2
f 21/11/2 24/10/2 23/9/2
f 31/6/3 30/7/3 29/8/3
f 30/7/3 31/6/3 32/5/3
f 30/5/4 21/8/4 29/6/4
f 21/8/4 30/5/4 22/7/4
f 24/12/5 31/9/5 23/11/5
f 31/9/5 24/12/5 32/10/5

usemtl stoneLight(Clone)

f 35/16/6 34/13/6 33/15/6
f 34/13/6 35/16/6 36/14/6
f 8/12/3 35/25/3 7/10/3
f 35/25/3 8/12/3 36/26/3
f 34/27/5 8/7/5 6/5/5
f 8/7/5 34/27/5 36/28/5
f 34/28/2 5/5/2 33/27/2
f 5/5/2 34/28/2 6/7/2
f 35/26/4 5/10/4 7/12/4
f 5/10/4 35/26/4 33/25/4
f 36/14/6 37/1/6 34/13/6
f 37/1/6 36/14/6 38/3/6
f 12/7/3 36/26/3 8/12/3
f 36/26/3 12/7/3 38/28/3
f 37/27/5 12/7/5 11/5/5
f 12/7/5 37/27/5 38/28/5
f 37/26/2 6/7/2 34/28/2
f 6/7/2 37/26/2 11/12/2
f 36/26/4 6/10/4 8/12/4
f 6/10/4 36/26/4 34/25/4
f 38/3/6 39/2/6 37/1/6
f 39/2/6 38/3/6 40/4/6
f 16/5/3 38/28/3 12/7/3
f 38/28/3 16/5/3 40/27/3
f 39/27/5 16/7/5 15/5/5
f 16/7/5 39/27/5 40/28/5
f 39/25/2 11/12/2 37/26/2
f 11/12/2 39/25/2 15/10/2
f 38/26/4 11/10/4 12/12/4
f 11/10/4 38/26/4 37/25/4
f 41/20/6 36/14/6 35/16/6
f 36/14/6 41/20/6 42/19/6
f 20/12/3 41/25/3 19/10/3
f 41/25/3 20/12/3 42/26/3
f 36/28/5 20/12/5 8/7/5
f 20/12/5 36/28/5 42/26/5
f 36/28/2 7/5/2 35/27/2
f 7/5/2 36/28/2 8/7/2
f 41/28/4 7/12/4 19/7/4
f 7/12/4 41/28/4 35/26/4
f 42/19/6 38/3/6 36/14/6
f 38/3/6 42/19/6 43/17/6
f 22/7/3 42/26/3 20/12/3
f 42/26/3 22/7/3 43/28/3
f 38/28/5 22/12/5 12/7/5
f 22/12/5 38/28/5 43/26/5
f 38/26/2 8/7/2 36/28/2
f 8/7/2 38/26/2 12/12/2
f 42/28/4 8/12/4 20/7/4
f 8/12/4 42/28/4 36/26/4
f 43/17/6 40/4/6 38/3/6
f 40/4/6 43/17/6 44/18/6
f 24/5/3 43/28/3 22/7/3
f 43/28/3 24/5/3 44/27/3
f 40/28/5 24/12/5 16/7/5
f 24/12/5 40/28/5 44/26/5
f 40/25/2 12/12/2 38/26/2
f 12/12/2 40/25/2 16/10/2
f 43/28/4 12/12/4 22/7/4
f 12/12/4 43/28/4 38/26/4
f 45/24/6 42/19/6 41/20/6
f 42/19/6 45/24/6 46/23/6
f 28/12/3 45/25/3 27/10/3
f 45/25/3 28/12/3 46/26/3
f 42/26/5 28/10/5 20/12/5
f 28/10/5 42/26/5 46/25/5
f 42/28/2 19/5/2 41/27/2
f 19/5/2 42/28/2 20/7/2
f 45/27/4 19/7/4 27/5/4
f 19/7/4 45/27/4 41/28/4
f 46/23/6 43/17/6 42/19/6
f 43/17/6 46/23/6 47/21/6
f 30/7/3 46/26/3 28/12/3
f 46/26/3 30/7/3 47/28/3
f 43/26/5 30/10/5 22/12/5
f 30/10/5 43/26/5 47/25/5
f 43/26/2 20/7/2 42/28/2
f 20/7/2 43/26/2 22/12/2
f 46/27/4 20/7/4 28/5/4
f 20/7/4 46/27/4 42/28/4
f 47/21/6 44/18/6 43/17/6
f 44/18/6 47/21/6 48/22/6
f 32/5/3 47/28/3 30/7/3
f 47/28/3 32/5/3 48/27/3
f 44/26/5 32/10/5 24/12/5
f 32/10/5 44/26/5 48/25/5
f 44/25/2 22/12/2 43/26/2
f 22/12/2 44/25/2 24/10/2
f 47/27/4 22/7/4 30/5/4
f 22/7/4 47/27/4 43/28/4

